<svg xmlns="http://www.w3.org/2000/svg" width="18" height="18" viewBox="0 0 18 18" fill="none">
<path fill-rule="evenodd" clip-rule="evenodd" d="M9.00022 13.4991C9.14941 13.4991 9.29248 13.4398 9.39797 13.3343C9.50346 13.2288 9.56272 13.0857 9.56272 12.9366V6.41943L11.977 8.8348C12.0293 8.8871 12.0914 8.92859 12.1597 8.95689C12.228 8.9852 12.3013 8.99976 12.3752 8.99976C12.4492 8.99976 12.5224 8.9852 12.5908 8.95689C12.6591 8.92859 12.7212 8.8871 12.7735 8.8348C12.8258 8.7825 12.8673 8.72042 12.8956 8.65208C12.9239 8.58375 12.9384 8.51051 12.9384 8.43655C12.9384 8.36259 12.9239 8.28935 12.8956 8.22102C12.8673 8.15269 12.8258 8.0906 12.7735 8.0383L9.39847 4.6633C9.34622 4.61092 9.28415 4.56936 9.21581 4.541C9.14747 4.51264 9.07421 4.49805 9.00022 4.49805C8.92623 4.49805 8.85297 4.51264 8.78463 4.541C8.7163 4.56936 8.65422 4.61092 8.60197 4.6633L5.22697 8.0383C5.12135 8.14393 5.06201 8.28718 5.06201 8.43655C5.06201 8.58593 5.12135 8.72918 5.22697 8.8348C5.33259 8.94043 5.47585 8.99976 5.62522 8.99976C5.7746 8.99976 5.91785 8.94043 6.02347 8.8348L8.43772 6.41943V12.9366C8.43772 13.0857 8.49699 13.2288 8.60247 13.3343C8.70796 13.4398 8.85104 13.4991 9.00022 13.4991Z" fill="#0057A3"/>
</svg>
