<svg xmlns="http://www.w3.org/2000/svg" width="32" height="25" viewBox="0 0 32 25" fill="none">
  <g clip-path="url(#clip0_1377_2131)">
    <path d="M20.5704 20.8824C16.3981 20.8156 13.092 17.3926 13.1825 13.1666C13.2008 12.1545 13.4161 11.1562 13.816 10.2301C14.2158 9.30391 14.7922 8.4684 15.5115 7.77231C16.2307 7.07622 17.0784 6.53349 18.0051 6.17578C18.9318 5.81807 19.9189 5.65254 20.9089 5.68887C24.8249 5.81558 28.1008 9.319 28.0338 13.4337C27.9668 17.5485 24.5619 20.9457 20.5704 20.8824ZM15.3307 13.2882C15.334 14.3547 15.6469 15.3963 16.2297 16.2811C16.8125 17.1659 17.6391 17.8541 18.6048 18.2586C19.5705 18.6631 20.632 18.7658 21.6549 18.5537C22.6777 18.3415 23.616 17.8241 24.351 17.0668C25.0859 16.3095 25.5845 15.3465 25.7837 14.2995C25.9828 13.2525 25.8735 12.1687 25.4697 11.1853C25.0658 10.2018 24.3856 9.36283 23.515 8.77458C22.6443 8.18634 21.6225 7.87523 20.5788 7.88065C19.1832 7.89329 17.8489 8.46847 16.8661 9.48112C15.8833 10.4938 15.3315 11.862 15.3307 13.2882Z" fill="#0057A3"/>
    <path d="M16.1184 0.125668C20.9041 0.125668 25.5741 0.0914206 30.3615 0.0948452C31.2864 0.0948452 31.8796 0.528065 31.9869 1.26437C32.0153 1.44444 32.0085 1.62847 31.9671 1.80588C31.9256 1.98328 31.8502 2.15055 31.7453 2.29808C31.6403 2.4456 31.5078 2.57046 31.3555 2.66547C31.2031 2.76048 31.0339 2.82377 30.8575 2.8517C30.6716 2.87859 30.4837 2.88833 30.2961 2.8808C20.7265 2.8808 11.2724 2.91505 1.70442 2.91334C0.699023 2.91334 0.0890858 2.46642 0.0120056 1.67704C-0.0734528 0.807175 0.524755 0.151353 1.45642 0.135942C2.31268 0.115394 3.16894 0.135942 4.0252 0.135942L16.1184 0.125668Z" fill="#0057A3"/>
    <path d="M6.72265 21.3053C8.4536 21.3053 10.1862 21.2882 11.9172 21.3053C13.0583 21.3208 13.7185 22.367 13.2259 23.3259C13.114 23.5584 12.939 23.7531 12.7218 23.8867C12.5046 24.0203 12.2544 24.0871 12.001 24.0793C8.45528 24.0896 4.90791 24.0964 1.36055 24.0793C1.18209 24.0849 1.00438 24.0534 0.838158 23.9868C0.671937 23.9202 0.520659 23.8199 0.393474 23.6918C0.266288 23.5638 0.165838 23.4107 0.0981935 23.2418C0.0305493 23.073 -0.0028839 22.8919 -8.14703e-05 22.7095C-8.14703e-05 21.9201 0.559587 21.3225 1.40244 21.3122C3.17529 21.2916 4.94813 21.3053 6.72265 21.3053Z" fill="#0057A3"/>
    <path d="M4.05518 10.7112C4.86954 10.7112 7.40649 10.7112 8.21751 10.7112C9.15252 10.7231 9.74738 11.2814 9.739 12.1187C9.739 12.9252 9.14582 13.4885 8.24934 13.4885C6.55861 13.5005 3.14865 13.5005 1.45959 13.4885C0.573165 13.48 -0.00828892 12.8961 8.93594e-05 12.0827C0.00846764 11.2694 0.591596 10.7231 1.48975 10.7129C2.34433 10.6992 3.20059 10.7112 4.05518 10.7112Z" fill="#0057A3"/>
    <path d="M31.8995 22.3995C31.9447 23.1273 31.7168 23.5605 31.2527 23.8516C30.7885 24.1427 30.2607 24.1547 29.8418 23.8002C28.7811 22.9029 27.7338 21.9834 26.7284 21.0211C26.2441 20.5588 26.2844 19.7797 26.6999 19.266C27.1155 18.7523 27.9014 18.5485 28.4409 18.992C29.5284 19.8892 30.569 20.8482 31.6046 21.8105C31.7855 21.98 31.8459 22.2882 31.8995 22.3995Z" fill="#0057A3"/>
  </g>
  <defs>
    <clipPath id="clip0_1377_2131">
      <rect width="32" height="24" fill="white" transform="translate(0 0.0930176)"/>
    </clipPath>
  </defs>
</svg>
