<svg xmlns="http://www.w3.org/2000/svg" width="15" height="16" viewBox="0 0 15 16" fill="none">
  <path d="M7.5 1.75C6.33968 1.75 5.22688 2.21094 4.40641 3.03141C3.58594 3.85188 3.125 4.96468 3.125 6.125C3.125 9.40625 7.5 14.25 7.5 14.25C7.5 14.25 11.875 9.40625 11.875 6.125C11.875 4.96468 11.4141 3.85188 10.5936 3.03141C9.77312 2.21094 8.66032 1.75 7.5 1.75ZM7.5 7.6875C7.19097 7.6875 6.88887 7.59586 6.63192 7.42417C6.37497 7.25248 6.1747 7.00845 6.05644 6.72294C5.93818 6.43743 5.90723 6.12327 5.96752 5.82017C6.02781 5.51708 6.17663 5.23867 6.39515 5.02015C6.61367 4.80163 6.89208 4.65281 7.19517 4.59252C7.49827 4.53223 7.81243 4.56318 8.09794 4.68144C8.38345 4.7997 8.62748 4.99997 8.79917 5.25692C8.97086 5.51387 9.0625 5.81597 9.0625 6.125C9.0625 6.33019 9.02208 6.53337 8.94356 6.72294C8.86504 6.91251 8.74995 7.08476 8.60485 7.22985C8.45976 7.37495 8.28751 7.49004 8.09794 7.56856C7.90837 7.64708 7.70519 7.6875 7.5 7.6875Z" fill="#0057A3"/>
</svg>
