<svg xmlns="http://www.w3.org/2000/svg" width="16" height="16" viewBox="0 0 16 16" fill="none">
  <path d="M7.9925 0.500004C6.50946 0.501487 5.06015 0.942614 3.82777 1.76763C2.59539 2.59264 1.63526 3.7645 1.06876 5.13507C0.502249 6.50565 0.354794 8.01341 0.645029 9.46777C0.935265 10.9221 1.65016 12.2578 2.69935 13.306C3.74855 14.3541 5.08493 15.0677 6.53958 15.3564C7.99424 15.6452 9.50185 15.4963 10.8719 14.9284C12.2419 14.3605 13.4128 13.3992 14.2365 12.166C15.0603 10.9328 15.5 9.48304 15.5 8C15.5 7.01446 15.3058 6.03858 14.9284 5.12814C14.551 4.21771 13.9979 3.39059 13.3007 2.69405C12.6034 1.99751 11.7757 1.44522 10.8649 1.06875C9.95413 0.692284 8.97805 0.499018 7.9925 0.500004ZM13.19 5H10.9775C10.7428 4.07109 10.3952 3.17442 9.9425 2.33C11.3106 2.80101 12.4634 3.7488 13.19 5ZM8 2.03C8.63 2.93893 9.11339 3.94113 9.4325 5H6.5675C6.88662 3.94113 7.37001 2.93893 8 2.03ZM2.195 9.5C1.93499 8.5169 1.93499 7.4831 2.195 6.5H4.73C4.66466 6.99742 4.62959 7.49834 4.625 8C4.62959 8.50167 4.66466 9.00259 4.73 9.5H2.195ZM2.81 11H5.0225C5.25723 11.9289 5.60482 12.8256 6.0575 13.67C4.68798 13.2016 3.53438 12.2531 2.81 11ZM5.0225 5H2.81C3.53438 3.74689 4.68798 2.79843 6.0575 2.33C5.60482 3.17442 5.25723 4.07109 5.0225 5ZM8 13.97C7.37001 13.0611 6.88662 12.0589 6.5675 11H9.4325C9.11339 12.0589 8.63 13.0611 8 13.97ZM9.755 9.5H6.245C6.17092 9.00332 6.13083 8.50215 6.125 8C6.13052 7.49784 6.17062 6.99666 6.245 6.5H9.755C9.82939 6.99666 9.86948 7.49784 9.875 8C9.86918 8.50215 9.82909 9.00332 9.755 9.5ZM9.9425 13.67C10.3952 12.8256 10.7428 11.9289 10.9775 11H13.19C12.4634 12.2512 11.3106 13.199 9.9425 13.67ZM11.27 9.5C11.3354 9.00259 11.3704 8.50167 11.375 8C11.3704 7.49834 11.3354 6.99742 11.27 6.5H13.805C14.065 7.4831 14.065 8.5169 13.805 9.5H11.27Z" fill="#0057A3"/>
</svg>
