<svg xmlns="http://www.w3.org/2000/svg" width="36.067" height="28.853" viewBox="0 0 36.067 28.853">
  <g id="balance-scale" style="isolation: isolate">
    <path id="balance-scale-2" data-name="balance-scale" d="M14.427,18.935h0c0-.912.076-.492-4.793-10.229a2.707,2.707,0,0,0-4.839,0C-.116,18.526,0,18.052,0,18.935H0c0,2.49,3.23,4.508,7.213,4.508S14.427,21.425,14.427,18.935ZM7.213,9.918l4.057,8.115H3.156Zm28.852,9.017c0-.912.076-.492-4.793-10.229a2.707,2.707,0,0,0-4.839,0c-4.91,9.82-4.792,9.346-4.792,10.229h0c0,2.49,3.23,4.508,7.213,4.508s7.213-2.019,7.213-4.508Zm-11.27-.9,4.057-8.115,4.057,8.115Zm4.959,7.213H19.837V8.636A4.512,4.512,0,0,0,22.451,5.41h7.3a.9.9,0,0,0,.9-.9V2.7a.9.9,0,0,0-.9-.9H21.62a4.468,4.468,0,0,0-7.173,0H6.312a.9.9,0,0,0-.9.9v1.8a.9.9,0,0,0,.9.9h7.3A4.512,4.512,0,0,0,16.23,8.636v16.61H6.312a.9.9,0,0,0-.9.9v1.8a.9.9,0,0,0,.9.9H29.755a.9.9,0,0,0,.9-.9v-1.8A.9.9,0,0,0,29.755,25.247Z"/>
  </g>
</svg>
