<svg xmlns="http://www.w3.org/2000/svg" width="42" height="33.6" viewBox="0 0 42 33.6">
  <g id="chalkboard-user-solid" style="isolation: isolate">
    <path id="chalkboard-user-solid-2" data-name="chalkboard-user-solid" d="M10.5,4.2A4.2,4.2,0,0,1,14.7,0H37.8A4.2,4.2,0,0,1,42,4.2V23.1a4.2,4.2,0,0,1-4.2,4.2H22.1a10.877,10.877,0,0,0-3.439-4.2H25.2V21a2.1,2.1,0,0,1,2.1-2.1h4.2A2.1,2.1,0,0,1,33.6,21v2.1h4.2V4.2H14.7V7.422A8.352,8.352,0,0,0,10.5,6.3Zm0,4.2a6.3,6.3,0,1,1-6.3,6.3,6.3,6.3,0,0,1,6.3-6.3ZM8.748,23.1h3.5A8.751,8.751,0,0,1,21,31.848,1.752,1.752,0,0,1,19.248,33.6H1.752A1.748,1.748,0,0,1,0,31.848,8.749,8.749,0,0,1,8.748,23.1Z"/>
  </g>
</svg>
