<svg xmlns="http://www.w3.org/2000/svg" width="15.102" height="26.854" viewBox="0 0 15.102 26.854">
  <g id="dollar-sign" style="isolation: isolate">
    <path id="dollar-sign-2" data-name="dollar-sign" d="M11.007,12.242,5.342,10.584a1.547,1.547,0,0,1,.435-3.032H9.255a3.2,3.2,0,0,1,1.794.551A.818.818,0,0,0,12.072,8L13.9,6.215A.85.85,0,0,0,13.8,4.93,7.417,7.417,0,0,0,9.266,3.357V.839A.842.842,0,0,0,8.426,0H6.748a.842.842,0,0,0-.839.839V3.357H5.778A5.747,5.747,0,0,0,.061,9.63a6,6,0,0,0,4.4,5.067L9.832,16.27A1.547,1.547,0,0,1,9.4,19.3H5.919a3.2,3.2,0,0,1-1.794-.551.818.818,0,0,0-1.023.1L1.278,20.639a.85.85,0,0,0,.094,1.285A7.417,7.417,0,0,0,5.909,23.5v2.518a.842.842,0,0,0,.839.839H8.426a.842.842,0,0,0,.839-.839V23.487a5.925,5.925,0,0,0,5.544-3.813,5.759,5.759,0,0,0-3.8-7.432Z" transform="translate(-0.036)"/>
  </g>
</svg>
