<svg xmlns="http://www.w3.org/2000/svg" width="30.5" height="20.333" viewBox="0 0 30.5 20.333">
  <g id="folder-open" style="isolation: isolate">
    <path id="folder-open-2" data-name="folder-open" d="M30.325,76.078,26.49,82.652a3.389,3.389,0,0,1-2.927,1.681H2.384a1.271,1.271,0,0,1-1.1-1.911l3.835-6.574a3.389,3.389,0,0,1,2.927-1.681H29.227A1.271,1.271,0,0,1,30.325,76.078ZM8.049,72.472H25.417V69.931a2.542,2.542,0,0,0-2.542-2.542H14.4L11.014,64H2.542A2.542,2.542,0,0,0,0,66.542V81.265l3.658-6.27A5.1,5.1,0,0,1,8.049,72.472Z" transform="translate(0 -64)"/>
  </g>
</svg>
