<svg xmlns="http://www.w3.org/2000/svg" width="46.362" height="32.453" viewBox="0 0 46.362 32.453">
  <g id="people-line-solid" style="isolation: isolate">
    <path id="people-line-solid-2" data-name="people-line-solid" d="M26.079,34.9a2.9,2.9,0,1,0-2.9,2.9A2.9,2.9,0,0,0,26.079,34.9ZM10.431,44.75a2.9,2.9,0,1,0-2.9-2.9A2.9,2.9,0,0,0,10.431,44.75ZM2.318,59.817a2.318,2.318,0,1,0,0,4.636H44.044a2.318,2.318,0,1,0,0-4.636ZM35.93,44.75a2.9,2.9,0,1,0-2.9-2.9A2.9,2.9,0,0,0,35.93,44.75ZM14.488,52.392l1.949,3.615A1.739,1.739,0,1,0,19.5,54.362l-2.63-4.89a1.625,1.625,0,0,0,.311-.42l1.941-3.615v3.948A2.316,2.316,0,0,0,21.442,51.7h3.477a2.316,2.316,0,0,0,2.318-2.318V45.438l1.949,3.615a1.809,1.809,0,0,0,.311.42l-2.63,4.89a1.739,1.739,0,1,0,3.064,1.644l1.941-3.615v2.789A2.316,2.316,0,0,0,34.192,57.5h3.477a2.316,2.316,0,0,0,2.318-2.318V52.392l1.949,3.615A1.739,1.739,0,1,0,45,54.362L42.254,49.27a6.372,6.372,0,0,0-5.614-3.354H35.22a6.382,6.382,0,0,0-3.289.913L29.5,42.316a6.373,6.373,0,0,0-5.614-3.354H22.471a6.381,6.381,0,0,0-5.614,3.354l-2.434,4.513a6.382,6.382,0,0,0-3.289-.913H9.721A6.381,6.381,0,0,0,4.107,49.27L1.369,54.355A1.739,1.739,0,0,0,4.433,56l1.941-3.608v2.789A2.316,2.316,0,0,0,8.693,57.5H12.17a2.316,2.316,0,0,0,2.318-2.318Z" transform="translate(0 -32)"/>
  </g>
</svg>
