<svg width="20" height="20" viewBox="0 0 20 20" fill="none" xmlns="http://www.w3.org/2000/svg">
<path d="M13.7918 12.562H12.936L12.6326 12.2695C13.8206 10.8855 14.4261 9.09496 14.322 7.27394C14.218 5.45293 13.4124 3.74305 12.0746 2.5033C10.7367 1.26355 8.9705 0.590355 7.14684 0.625057C5.32319 0.659759 3.5839 1.39966 2.29415 2.68941C1.00439 3.97916 0.264496 5.71845 0.229794 7.5421C0.195091 9.36576 0.868285 11.1319 2.10804 12.4698C3.34779 13.8077 5.05767 14.6132 6.87868 14.7173C8.69969 14.8214 10.4902 14.2158 11.8743 13.0279L12.1668 13.3312V14.187L17.5835 19.5929L19.1976 17.9787L13.7918 12.562ZM7.29179 12.562C6.3276 12.562 5.38507 12.2761 4.58338 11.7405C3.78169 11.2048 3.15685 10.4434 2.78787 9.55263C2.4189 8.66184 2.32235 7.68164 2.51046 6.73598C2.69856 5.79033 3.16286 4.92168 3.84464 4.2399C4.52642 3.55812 5.39506 3.09382 6.34072 2.90572C7.28638 2.71762 8.26658 2.81416 9.15737 3.18314C10.0482 3.55211 10.8095 4.17695 11.3452 4.97864C11.8809 5.78033 12.1668 6.72287 12.1668 7.68705C12.1676 8.32748 12.0421 8.96179 11.7974 9.55364C11.5528 10.1455 11.1937 10.6832 10.7408 11.1361C10.288 11.589 9.75023 11.948 9.15838 12.1927C8.56653 12.4374 7.93222 12.5629 7.29179 12.562Z" fill="#0057A3"/>
</svg>
