<svg xmlns="http://www.w3.org/2000/svg" width="18" height="18" viewBox="0 0 18 18" fill="none">
  <path fill-rule="evenodd" clip-rule="evenodd" d="M13.5 9.00016C13.5 9.14935 13.4408 9.29242 13.3353 9.39791C13.2298 9.5034 13.0867 9.56266 12.9375 9.56266H6.4204L8.83578 11.9769C8.88808 12.0292 8.92956 12.0913 8.95787 12.1596C8.98617 12.228 9.00074 12.3012 9.00074 12.3752C9.00074 12.4491 8.98617 12.5224 8.95787 12.5907C8.92956 12.659 8.88808 12.7211 8.83578 12.7734C8.78348 12.8257 8.72139 12.8672 8.65306 12.8955C8.58473 12.9238 8.51149 12.9384 8.43753 12.9384C8.36357 12.9384 8.29033 12.9238 8.222 12.8955C8.15367 12.8672 8.09158 12.8257 8.03928 12.7734L4.66428 9.39841C4.6119 9.34616 4.57033 9.28409 4.54198 9.21575C4.51362 9.14741 4.49902 9.07415 4.49902 9.00016C4.49902 8.92617 4.51362 8.85291 4.54198 8.78457C4.57033 8.71623 4.6119 8.65416 4.66428 8.60191L8.03928 5.22691C8.1449 5.12129 8.28816 5.06195 8.43753 5.06195C8.5869 5.06195 8.73016 5.12129 8.83578 5.22691C8.9414 5.33253 9.00074 5.47579 9.00074 5.62516C9.00074 5.77453 8.9414 5.91779 8.83578 6.02341L6.4204 8.43766H12.9375C13.0867 8.43766 13.2298 8.49692 13.3353 8.60241C13.4408 8.7079 13.5 8.85098 13.5 9.00016Z" fill="#525661"/>
</svg>
